<svg width="15" height="17" viewBox="0 0 15 17" fill="none" xmlns="http://www.w3.org/2000/svg">
<path d="M6.67871 8.69424C6.82207 8.87174 7.08691 8.93618 7.33203 8.87979L7.43555 8.84854L7.49121 8.8251C7.51064 8.8157 7.53062 8.80342 7.5498 8.78897C7.59059 8.75815 7.62303 8.71732 7.64844 8.66202C7.69585 8.55868 7.72255 8.39552 7.74023 8.12686C7.77602 7.58259 7.77734 6.53963 7.77734 4.49698C7.77734 2.45404 7.77604 1.41127 7.74023 0.867096C7.72254 0.598244 7.69591 0.435269 7.64844 0.33194C7.623 0.276588 7.59066 0.235817 7.5498 0.204987C7.51136 0.17602 7.46934 0.15945 7.43555 0.146393L7.43457 0.145416C7.18868 0.0540858 6.89262 0.0992669 6.71191 0.285065L6.55762 0.432526L6.52734 0.462799V4.48526C6.52734 6.45197 6.52669 7.451 6.54297 7.97745C6.55106 8.23894 6.5638 8.391 6.58398 8.48917C6.59439 8.53978 6.60751 8.57979 6.625 8.61417C6.64239 8.64823 6.66189 8.67342 6.67871 8.69424Z" fill="#222222" stroke="#222222" stroke-width="0.2"/>
<path d="M5.22852 16.026C6.12256 16.2761 6.55943 16.3261 7.58203 16.2887C8.60666 16.2512 9.25534 16.1132 10.1445 15.7438C11.583 15.147 13.009 13.7884 13.7422 12.3287C13.9941 11.8313 14.2879 10.9384 14.3945 10.3551V10.3541C14.4517 10.0299 14.4761 9.52066 14.4707 9.02209C14.4653 8.52394 14.4295 8.0234 14.3623 7.71936C13.8615 5.41695 12.433 3.58166 10.3896 2.60999L10.3906 2.60901C10.0696 2.45466 9.83486 2.3639 9.65039 2.34241C9.55573 2.3314 9.4702 2.33824 9.3916 2.36584C9.31309 2.39348 9.24728 2.43986 9.18848 2.49866C9.08092 2.60634 9.01886 2.75325 9.00195 2.89807C8.98523 3.04157 9.0115 3.19456 9.09668 3.31213L9.13867 3.35706C9.15492 3.37116 9.17274 3.38446 9.18945 3.39612C9.22623 3.42177 9.27231 3.4495 9.32324 3.47815C9.42548 3.53565 9.55354 3.59922 9.68262 3.65588C12.4596 4.8651 13.8822 7.99495 12.9766 10.8942C12.3629 12.844 10.777 14.3519 8.73242 14.9117C8.49422 14.9764 8.0334 15.0227 7.5498 15.0397C7.06719 15.0566 6.57701 15.0445 6.28418 14.9967C4.87616 14.7721 3.53293 13.9758 2.62109 12.8209L2.62012 12.8199C1.93365 11.9633 1.54458 11.0533 1.37402 9.92053V9.91956C1.10116 8.14194 1.75686 6.21491 3.06934 4.92053C3.28383 4.70913 3.45188 4.55032 3.58008 4.44202C3.64409 4.38795 3.69702 4.3485 3.73926 4.32092C3.75849 4.30837 3.77548 4.30193 3.78809 4.29553C3.78801 4.32872 3.78449 4.37301 3.77441 4.42932L3.72461 4.65198C3.657 4.92242 3.62123 5.11149 3.63086 5.25745C3.63874 5.37635 3.67644 5.46475 3.73828 5.54358L3.80762 5.61975C3.92003 5.7346 4.05961 5.79546 4.20508 5.79749C4.35114 5.79939 4.49596 5.74234 4.61719 5.63538H4.61621C4.70163 5.5619 4.7629 5.4527 4.83496 5.25061C4.90765 5.04675 4.99624 4.73186 5.12891 4.23206H5.12988C5.21476 3.90335 5.27925 3.64841 5.32324 3.44885C5.36695 3.25058 5.39152 3.10049 5.39453 2.98303C5.39754 2.86343 5.37809 2.76801 5.32617 2.68713C5.27639 2.60972 5.20286 2.55592 5.125 2.50452L5.12305 2.50354C5.09445 2.48548 5.04862 2.46961 5.00391 2.45667C4.95454 2.44238 4.89045 2.42713 4.81445 2.40979C4.66149 2.3749 4.45488 2.33299 4.20996 2.28772C3.71964 2.19709 3.07078 2.09097 2.37793 1.98889C2.30885 1.97805 2.23174 1.97726 2.16309 1.98499C2.09677 1.99247 2.0264 2.00905 1.97559 2.03674H1.97461C1.86578 2.09796 1.78096 2.17109 1.72461 2.26526C1.66809 2.35978 1.64552 2.46684 1.64551 2.58752C1.64551 2.77319 1.69159 2.92224 1.83691 3.03479C1.97019 3.13794 2.17708 3.20182 2.4668 3.26038H2.46777C2.60723 3.28767 2.73509 3.31947 2.82812 3.34827C2.84798 3.35442 2.86513 3.36225 2.88086 3.3678C2.87425 3.37507 2.86828 3.38399 2.86035 3.39221C2.80166 3.45308 2.71552 3.53076 2.61621 3.60901L2.61523 3.60999C2.2033 3.93972 1.57227 4.66515 1.21582 5.21545C0.457097 6.38816 0.100586 7.63701 0.100586 9.12561C0.100586 10.0505 0.194712 10.6482 0.482422 11.5114C1.17892 13.6196 3.06443 15.4105 5.22754 16.025L5.22852 16.026Z" fill="#222222" stroke="#222222" stroke-width="0.2"/>
</svg>
